<?xml version="1.0" standalone="no"?><!DOCTYPE svg PUBLIC "-//W3C//DTD SVG 1.1//EN" "http://www.w3.org/Graphics/SVG/1.1/DTD/svg11.dtd"><svg t="1642747302980" class="icon" viewBox="0 0 1024 1024" version="1.1" xmlns="http://www.w3.org/2000/svg" p-id="22500" xmlns:xlink="http://www.w3.org/1999/xlink" width="300" height="300"><defs><style type="text/css"></style></defs><path d="M512.7 812.4c-194 0-364.5-52.1-415.3-125.3V767c0 86.8 186.3 157.5 415.3 157.5S928 853.8 928 767v-80c-50.8 73.2-221.3 125.4-415.3 125.4z m0-170.7c-194 0-364.5-52.1-415.3-125.3v79.9c0 86.8 186.3 157.5 415.3 157.5S928 683.2 928 596.4v-79.9c-50.8 73.1-221.3 125.2-415.3 125.2z m0-170.6c-194 0-364.5-52.1-415.3-125.3v79.9c0 86.8 186.3 157.5 415.3 157.5S928 512.6 928 425.8v-79.9C877.2 419 706.7 471.1 512.7 471.1zM216.8 365.2c78.9 30.6 184 47.5 295.9 47.5 229 0 415.2-70.7 415.2-157.5S741.6 97.7 512.7 97.7 97.5 168.3 97.5 255.2c0 41 42.4 80.1 119.3 110z" fill="#0b5975" p-id="22501"></path></svg>