<?xml version="1.0" standalone="no"?><!DOCTYPE svg PUBLIC "-//W3C//DTD SVG 1.1//EN" "http://www.w3.org/Graphics/SVG/1.1/DTD/svg11.dtd"><svg t="1641540324347" class="icon" viewBox="0 0 1029 1024" version="1.1" xmlns="http://www.w3.org/2000/svg" p-id="5122" xmlns:xlink="http://www.w3.org/1999/xlink" width="301.46484375" height="300"><defs><style type="text/css"></style></defs><path d="M514.4 34.4c-266.4 0-482.4 213.6-482.4 477.6s216 477.6 482.4 477.6 482.4-213.6 482.4-477.6-216-477.6-482.4-477.6z m264.96 530.88c3.36 64.8-67.68 101.28-119.52 104.64 24-22.56 86.88-59.52 74.4-111.84-4.8-21.12-31.68-34.08-61.44-27.84 38.4-33.12 103.68-20.16 106.56 35.04z m-160.32-249.6c-17.28 14.4-48.48 33.6-50.4 59.52-2.4 39.84 58.56 76.32 25.92 126.72-12.48 19.2-33.12 27.36-59.52 39.36-3.36-5.76 6.72-10.56 11.04-16.8 40.8-59.04-42.24-78.72-31.68-151.2 10.08-70.08 93.12-94.56 169.92-104.64-21.6 15.36-42.24 28.32-65.28 47.04z m-214.56 33.6c30.72-56.64 122.4-90.72 155.04-151.2 7.68-14.88 13.92-37.44 3.84-56.16 12.96 12.48 22.56 35.04 22.56 59.52 0 72-76.32 113.76-113.76 162.24-8.16 11.04-18.72 27.36-18.72 44.64 0.48 39.36 41.28 83.52 56.16 115.68-25.92-17.28-57.6-40.32-80.16-67.2-23.04-26.4-45.6-70.08-24.96-107.52z m-9.6 164.16c6.72-0.48 19.68-3.36 29.76-1.92-19.2 9.12-51.36 10.56-65.28 29.76 14.4 10.56 35.04 10.08 54.24 11.04 78.72 3.36 177.12-3.36 244.32-14.88 2.4 4.8-9.12 13.44-16.8 18.72-42.24 31.2-174.24 39.84-264.96 33.6-30.24-1.92-99.84-10.08-100.8-37.44-0.48-33.12 84.48-36.48 119.52-38.88z m156.96 175.2c8.64-1.92 17.28-8.16 24.48-7.68 21.6 1.44 29.76 24 48.48 27.84-59.52 36.48-203.52 50.88-263.04 5.76-2.88-33.12 24-36.96 48.48-42.72 5.76 1.92-1.92 4.8-1.92 7.68 16.8 29.28 100.8 18.72 143.52 9.12z m-160.32-25.92c-20.64-3.84-56.64-14.88-57.6-31.68-1.44-22.56 35.52-32.16 52.32-35.52 8.64 0.96-6.24 6.24-3.84 12.96 32.16 31.68 132 22.56 180.96 12.96 10.08-1.92 20.64-8.16 27.84-7.68 18.72 1.44 30.72 23.52 46.56 25.92-57.12 25.92-166.56 37.92-246.24 23.04zM221.6 753.92c2.4-41.76 103.2-53.28 134.4-25.92-17.76 4.32-63.84-1.92-65.28 22.56-0.48 9.12 15.84 20.16 25.92 24.48 60.96 23.04 182.88 26.4 283.68 14.88 46.56-5.28 134.4-21.12 123.36-69.12 13.92 1.44 26.4 10.56 27.84 24.48 5.76 51.36-112.8 72.96-160.32 78.24-103.68 11.52-233.76 9.12-313.44-18.72-26.4-9.6-57.6-25.92-56.16-50.88zM594.56 882.56H514.4c-70.08-7.68-137.28-17.76-193.92-42.72 148.32 35.52 364.32 33.12 468.48-42.72 5.76-4.32 11.04-12 18.72-11.04-26.4 77.76-126.72 83.04-213.12 96.48z" fill="#ff7f50" p-id="5123" data-spm-anchor-id="a313x.7781069.0.i13" class="selected"></path></svg>