<?xml version="1.0" standalone="no"?><!DOCTYPE svg PUBLIC "-//W3C//DTD SVG 1.1//EN" "http://www.w3.org/Graphics/SVG/1.1/DTD/svg11.dtd"><svg t="1641896160340" class="icon" viewBox="0 0 1024 1024" version="1.1" xmlns="http://www.w3.org/2000/svg" p-id="7933" xmlns:xlink="http://www.w3.org/1999/xlink" width="300" height="300"><defs><style type="text/css"></style></defs><path d="M512 512m-512 0a512 512 0 1 0 1024 0 512 512 0 1 0-1024 0Z" fill="#3572a5" p-id="7934" data-spm-anchor-id="a313x.7781069.0.i5" class="selected"></path><path d="M822.912 433.664c15.616 62.7968 16.3328 109.1584 0 158.1312-15.7952 47.5904-32.7424 78.5152-78.1824 78.5152h-233.9328v21.4272h155.3152v59.5712c0 45.1072-38.2464 68.0448-77.568 79.4624-59.2384 17.152-106.112 14.5408-155.5968 0-41.344-12.16-77.4656-37.0944-77.4656-79.4624v-148.8896c0-42.8288 33.9712-82.0736 76.7488-82.0736h156.16c52.0448 0 99.1488-42.6752 99.1488-96.512v-69.504h57.1904c45.5168 0 66.944 34.0736 78.1824 79.3088z m-224.6912 297.7792c-16.128 0-29.3376 13.2864-29.3376 29.696 0 16.4864 13.2096 29.9008 29.3376 29.9008 16.2304 0 29.3632-13.4144 29.3632-29.8752 0-16.4352-13.1328-29.696-29.3632-29.696z" fill="#ffffff" p-id="7935" data-spm-anchor-id="a313x.7781069.0.i6" class=""></path><path d="M432.2304 504.2944c-53.0432 0-98.176 44.544-98.176 96.128v69.888h-53.248c-45.44 0-71.9872-32.2304-83.0976-78.5152-15.0016-62.1824-14.3616-98.5856 0-158.1568 12.4416-51.968 52.224-79.3088 97.664-79.3088h215.424v-21.4272h-155.3152v-57.9328c0-45.1072 11.2384-69.5808 77.4144-81.28a436.2496 436.2496 0 0 1 73.9328-6.3744 485.5808 485.5808 0 0 1 81.3312 6.4c42.4192 7.0656 77.952 38.912 77.952 81.2544v148.8896c0 43.648-34.2528 80.4352-77.7216 80.4352h-156.16z m-9.856-209.4592c16.1536 0 29.3376-13.2864 29.3632-29.696 0-16.4864-13.2096-29.9008-29.3632-29.9008-16.2048 0-29.3376 13.4144-29.3376 29.9008 0 16.4096 13.1328 29.696 29.3376 29.696z" fill="#ffffff" p-id="7936" data-spm-anchor-id="a313x.7781069.0.i7" class=""></path></svg>