<?xml version="1.0" standalone="no"?><!DOCTYPE svg PUBLIC "-//W3C//DTD SVG 1.1//EN" "http://www.w3.org/Graphics/SVG/1.1/DTD/svg11.dtd"><svg t="1641899660665" class="icon" viewBox="0 0 1024 1024" version="1.1" xmlns="http://www.w3.org/2000/svg" p-id="10746" xmlns:xlink="http://www.w3.org/1999/xlink" width="300" height="300"><defs><style type="text/css"></style></defs><path d="M962.1582 326.204442c39.295822 55.308869 61.8418 118.575143 61.8418 185.820118s-22.545978 130.904207-62.234758 186.311316c-11.150189 67.195856-40.032619 128.05526-87.727922 175.750563-46.860268 46.811148-106.982875 76.626853-176.143522 87.973522-55.308869 39.295822-118.624262 61.940039-185.869238 61.940039s-130.658608-22.447738-185.918358-61.940039c-69.160647-11.346669-129.283254-41.162373-176.143522-87.973522-47.695304-47.695304-76.577733-108.554708-87.678802-175.750563C22.595098 642.879647 0 579.416895 0 512.02456s22.595098-130.953327 62.283878-186.311316c11.05195-67.195856 39.836139-128.05526 87.678802-175.750564 46.860268-46.860268 106.982875-76.626853 176.143522-87.973521C381.365952 22.447738 444.730465 0 512.02456 0s130.413009 22.447738 185.869238 61.989159c69.160647 11.346669 129.283254 41.113254 176.143522 87.973521s76.823332 107.474073 88.12088 176.241762z m48.333861 185.820118a299.630642 299.630642 0 0 0-44.600758-155.464096 436.183624 436.183624 0 0 1-2.799827 95.439728 507.407301 507.407301 0 0 1-12.279944 60.515566 459.810236 459.810236 0 0 1 14.735933 155.611455 299.630642 299.630642 0 0 0 44.895476-156.102653z m-60.908524-61.8418a407.694153 407.694153 0 0 0-0.392958-118.869861 424.100158 424.100158 0 0 0-113.810524-105.607522 589.879407 589.879407 0 0 1 48.726819 132.181321 587.816376 587.816376 0 0 1 58.943733 128.202619c2.701588-11.985226 4.911978-23.921332 6.53293-35.906557z m-0.638557 242.79906a424.886075 424.886075 0 0 0-5.796134-154.334341 586.244544 586.244544 0 0 1-59.189331 127.711422 591.893318 591.893318 0 0 1-48.62858 131.788362 426.114069 426.114069 0 0 0 113.663165-105.165443z m-12.132585-180.662541a555.692042 555.692042 0 0 0-44.2078-111.600135 664.148511 664.148511 0 0 1 0 223.298508 553.97285 553.97285 0 0 0 44.25692-111.698373z m6.58205-210.085288a294.718665 294.718665 0 0 0-221.628436-221.628436 458.876961 458.876961 0 0 1 100.400826 121.22761 459.711997 459.711997 0 0 1 121.22761 100.449945z m-78.935482 562.224972a299.876241 299.876241 0 0 0 78.591644-142.447355 460.694392 460.694392 0 0 1-120.883772 100.007867 459.564638 459.564638 0 0 1-100.351706 121.178491 299.090325 299.090325 0 0 0 142.643834-78.739003z m-4.4699-543.068259a555.053485 555.053485 0 0 0-47.597064-109.733583 555.937641 555.937641 0 0 0-109.389744-47.498825 674.758383 674.758383 0 0 1 84.928095 71.960474 661.741641 661.741641 0 0 1 72.009593 85.321053z m-47.597064 490.903055a555.986761 555.986761 0 0 0 47.498825-109.487984 670.435842 670.435842 0 0 1-156.937689 157.183288 557.705953 557.705953 0 0 0 109.389744-47.646184z m-14.048256-623.821173a424.935195 424.935195 0 0 0-105.509282-113.761405 388.586559 388.586559 0 0 0-59.77877-4.617259 455.733295 455.733295 0 0 0-94.75205 10.364273 583.641195 583.641195 0 0 1 128.349978 59.434931 591.107402 591.107402 0 0 1 131.641004 48.775939z m-105.558402 760.668873a424.149278 424.149278 0 0 0 105.460162-113.761404 590.026766 590.026766 0 0 1-131.641004 48.57946 585.556867 585.556867 0 0 1-128.349978 59.43493 455.684175 455.684175 0 0 0 94.752051 10.315154 388.635679 388.635679 0 0 0 59.778769-4.56814z m17.093682-323.404614c71.911354-83.84746 44.2078-228.652564 19.647911-321.783662-31.092819 55.25975-101.334101 94.555572-160.326953 104.526886-55.407109 9.480117-115.971795-5.255816-167.645801 10.855471-117.887466 36.790713-125.108073 174.080491-63.85571 209.004653l2.947186 2.406869c0.491198 0 108.06351-11.690507 160.818152-27.310596 77.118051-22.938936 164.158296-86.00873 196.479109-163.814458-19.647911 81.833549-96.078285 156.79033-169.85619 188.767305-39.295822 17.044563-68.37473 22.05478-133.065477 37.036312a128.939416 128.939416 0 0 0-42.832446 19.647911c73.090229-46.565549 269.127261 43.765722 357.739339-59.385811zM633.006572 56.733343c11.690507 0 23.135415 0.491198 34.383844 1.424473a293.195951 293.195951 0 0 0-310.780832 0c11.248429-0.933276 22.742457-1.424474 34.383844-1.424473a476.461841 476.461841 0 0 1 120.982012 16.258646 475.970643 475.970643 0 0 1 121.031132-16.258646z m34.383844 909.108841q-16.897203 1.424474-34.383844 1.473593a477.788075 477.788075 0 0 1-120.982012-16.258646 478.328393 478.328393 0 0 1-120.982012 16.258646c-11.690507 0-23.135415-0.491198-34.383844-1.424474a293.048592 293.048592 0 0 0 310.780832 0z m-43.323644-834.495899a549.45383 549.45383 0 0 0-112.091332-44.2078 548.520555 548.520555 0 0 0-112.091332 44.2078 664.983547 664.983547 0 0 1 224.133544 0z m-112.042212 805.809949a549.45383 549.45383 0 0 0 112.091332-44.2078 664.983547 664.983547 0 0 1-224.133544 0 548.520555 548.520555 0 0 0 112.042212 44.2078zM485.745479 80.605555a455.340337 455.340337 0 0 0-94.702931-10.364273 388.046242 388.046242 0 0 0-59.778769 4.617259 424.247518 424.247518 0 0 0-105.558402 113.810524 590.763563 590.763563 0 0 1 131.837483-48.62858 583.641195 583.641195 0 0 1 128.202619-59.43493zM390.993428 953.709599a455.291217 455.291217 0 0 0 94.702931-10.315154 584.525351 584.525351 0 0 1-128.153499-59.43493 591.107402 591.107402 0 0 1-131.690123-48.57946 424.935195 424.935195 0 0 0 105.509282 113.761404 388.046242 388.046242 0 0 0 59.631409 4.56814z m-91.608385-258.124431a30.7981 30.7981 0 1 0-31.338418-30.306903 30.699861 30.699861 0 0 0 31.338418 30.306903z m21.661822-531.426872a555.053485 555.053485 0 0 0-109.340624 47.498825 555.053485 555.053485 0 0 0-47.646184 109.733583 669.797285 669.797285 0 0 1 157.183287-157.183288z m-109.389744 648.381062a557.312995 557.312995 0 0 0 109.389744 47.498825 675.2987 675.2987 0 0 1-84.928095-71.960474 665.818583 665.818583 0 0 1-72.058713-85.370173 555.397323 555.397323 0 0 0 47.646184 109.635343z m-9.823956-610.706193a460.497913 460.497913 0 0 1 100.351706-121.17849 293.883628 293.883628 0 0 0-221.038999 221.038998 459.662877 459.662877 0 0 1 120.687293-99.860508z m100.351706 741.70864a461.13647 461.13647 0 0 1-100.351706-121.37497 460.497913 460.497913 0 0 1-120.834652-100.007867 293.883628 293.883628 0 0 0 221.038998 221.038998z m-162.095266-585.458628a589.977647 589.977647 0 0 1 48.775939-132.181321 423.510721 423.510721 0 0 0-113.810524 105.116324 424.738715 424.738715 0 0 0 5.845253 154.776419 591.254761 591.254761 0 0 1 58.992853-127.907901z m48.775939 440.407925a589.977647 589.977647 0 0 1-48.775939-132.181321 591.254761 591.254761 0 0 1-58.943733-127.711422 424.689596 424.689596 0 0 0-5.845253 154.776419 424.198398 424.198398 0 0 0 113.368446 104.919845z m-67.097616-286.466542a662.674917 662.674917 0 0 1 9.430998-111.305416 556.03588 556.03588 0 0 0-43.814842 111.305416 556.03588 556.03588 0 0 0 43.962201 111.305416 662.674917 662.674917 0 0 1-9.578357-111.305416z m-48.4321 0a459.957596 459.957596 0 0 1-14.735934-156.151773 293.245071 293.245071 0 0 0 0 312.303545 459.957596 459.957596 0 0 1 14.735934-156.151772z" fill="#41b883" p-id="10747"></path><path d="M729.428695 303.953183c24.559889 93.327577 52.361683 237.936202-19.647911 321.783662-88.415599 103.151533-284.64911 12.771142-357.6411 58.943733a128.939416 128.939416 0 0 1 42.832446-19.647911c64.690747-14.735933 93.818775-19.991749 133.065477-37.036313 73.679666-31.976975 150.11004-106.933755 169.856191-188.767304-32.419053 77.805727-119.410179 140.924641-196.47911 163.814457-52.558162 15.620089-160.277834 27.310596-160.818151 27.310597l-2.947187-2.406869c-61.350602-34.875042-54.031755-172.16482 63.855711-209.004653 51.674006-16.111287 112.238691-1.375354 167.6458-10.855471 58.992853-9.627476 129.234134-48.923298 160.277834-104.133928z" fill="#ffffff" p-id="10748" data-spm-anchor-id="a313x.7781069.0.i3" class="selected"></path></svg>